<svg width="24" height="24" viewBox="0 0 24 24" xmlns="http://www.w3.org/2000/svg">
    <g fill="none" fill-rule="evenodd">
        <path d="M0 0h24v24H0z"/>
        <path d="M16.447 11.07c-.309.002-.558.224-.56.499v.493c0 1.912-1.74 3.462-3.887 3.462-2.147 0-3.887-1.55-3.887-3.462v-.493c0-.274-.249-.496-.556-.496-.308 0-.557.222-.557.496v.493c.003 2.267 1.917 4.172 4.447 4.424v.522h-1.114c-.307.003-.554.226-.553.5 0 .13.058.255.162.348a.589.589 0 0 0 .391.144h3.334a.589.589 0 0 0 .391-.144.467.467 0 0 0 .162-.349c0-.273-.246-.496-.553-.499h-1.114v-.522c2.53-.252 4.444-2.157 4.447-4.424v-.493c0-.274-.246-.496-.553-.499zm-1.114.38V8.153C15.253 6.389 13.785 5 12 5c-1.785 0-3.254 1.389-3.333 3.152v3.299c.002 1.818 1.49 3.293 3.33 3.299 1.84-.005 3.33-1.48 3.336-3.3z" fill="#FFF"/>
    </g>
</svg>
